# xmcd
#
# Track frame offsets:
#	151
#	164543
#	224600
#
# Disc length: 3705 seconds
#
# Revision: 0
# Processed by: cddbd v1.5.2PL0 Copyright (c) Steve Scherf et al.
# Submitted via: dBpowerAMP V4.0
#
DISCID=290e7703
DTITLE=HC Andersen - CD06
DYEAR=1900
DGENRE=Lydbog
TTITLE0=Paradisets Have
TTITLE1=Den flyvende Koffert
TTITLE2=Storkene
EXTD=
EXTT0=
EXTT1=
EXTT2=
PLAYORDER=
